<?xml version="1.0" encoding="UTF-8" standalone="no"?>
<!-- Uploaded to: SVG Repo, www.svgrepo.com, Generator: SVG Repo Mixer Tools -->

<svg
   fill="#000000"
   height="800px"
   width="800px"
   version="1.1"
   id="Capa_1"
   viewBox="0 0 452.025 452.025"
   xml:space="preserve"
   sodipodi:docname="change-tile.svg"
   inkscape:version="1.2.2 (732a01da63, 2022-12-09)"
   xmlns:inkscape="http://www.inkscape.org/namespaces/inkscape"
   xmlns:sodipodi="http://sodipodi.sourceforge.net/DTD/sodipodi-0.dtd"
   xmlns="http://www.w3.org/2000/svg"
   xmlns:svg="http://www.w3.org/2000/svg"><defs
   id="defs47">
		
		
		
		
		
		
		
		
		
		
		
		
		
		
		
		
		
		
		
	</defs><sodipodi:namedview
   id="namedview45"
   pagecolor="#ffffff"
   bordercolor="#000000"
   borderopacity="0.25"
   inkscape:showpageshadow="2"
   inkscape:pageopacity="0.0"
   inkscape:pagecheckerboard="0"
   inkscape:deskcolor="#d1d1d1"
   showgrid="false"
   inkscape:zoom="0.518125"
   inkscape:cx="523.03981"
   inkscape:cy="567.43064"
   inkscape:window-width="1920"
   inkscape:window-height="1013"
   inkscape:window-x="-8"
   inkscape:window-y="-8"
   inkscape:window-maximized="1"
   inkscape:current-layer="g42"
   showguides="true" />
<g
   id="g42">
	<path
   d="m 147.912,363.325 c -4.7,-4.7 -12.3,-4.7 -17,0 -4.7,4.7 -4.7,12.3 0,17 l 13.6,13.6 h -55.2 c -35.9,0 -65,-29.2 -65,-65 v -40.3 c 0,-6.6 -5.4,-12 -12,-12 -6.6,0 -12,5.4 -12,12 v 40.3 c 0,49.1 39.9,89 89,89 h 55.2 l -13.6,13.6 c -4.7,4.7 -4.7,12.3 0,17 2.3,2.3 5.4,3.5 8.5,3.5 3.1,0 6.1,-1.2 8.5,-3.5 l 34.1,-34.1 c 4.7,-4.7 4.7,-12.3 0,-17 z"
   id="path2" /><path
   d="m 362.612,34.125 h -55.2 l 13.6,-13.6 c 4.7,-4.7 4.7,-12.3 0,-17 -4.7,-4.7 -12.3,-4.7 -17,0 l -34,34.1 c -4.7,4.7 -4.7,12.3 0,17 l 34.1,34.1 c 2.3,2.3 5.4,3.5 8.5,3.5 3.1,0 6.1,-1.2 8.5,-3.5 4.7,-4.7 4.7,-12.3 0,-17 l -13.6,-13.6 h 55.2 c 35.9,0 65,29.2 65,65 v 40.3 c 0,6.6 5.4,12 12,12 6.6,0 12,-5.4 12,-12 v -40.3 c 0,-49.1 -40,-89 -89.1,-89 z"
   id="path6" /><path
   d="m 252.23319,291.63742 c -3.2,0 -6.3,1.3 -8.5,3.5 -2.2,2.2 -3.5,5.3 -3.5,8.5 0,3.2 1.3,6.3 3.5,8.5 2.2,2.2 5.3,3.5 8.5,3.5 3.1,0 6.3,-1.3 8.5,-3.5 2.2,-2.2 3.5,-5.3 3.5,-8.5 0,-3.1 -1.3,-6.3 -3.5,-8.5 -2.301,-2.3 -5.401,-3.5 -8.5,-3.5 z"
   id="path24-2" /><path
   d="m 301.43219,291.63742 c -6.6,0 -12,5.4 -12,12 0,6.6 5.4,12 12,12 6.6,0 12,-5.4 12,-12 0,-6.6 -5.3,-12 -12,-12 z"
   id="path30-4" /><path
   d="m 359.0995,264.625 c -3.2,0 -6.3,1.3 -8.5,3.5 -2.2,2.2 -3.5,5.3 -3.5,8.5 0,3.2 1.3,6.3 3.5,8.5 2.2,2.2 5.3,3.5 8.5,3.5 3.1,0 6.3,-1.3 8.5,-3.5 2.2,-2.2 3.5,-5.3 3.5,-8.5 0,-3.1 -1.3,-6.3 -3.5,-8.5 -2.301,-2.3 -5.401,-3.5 -8.5,-3.5 z"
   id="path24-6" /><path
   d="m 400.60131,264.625 c -6.6,0 -12,5.4 -12,12 0,6.6 5.4,12 12,12 6.6,0 12,-5.4 12,-12 0,-6.6 -5.3,-12 -12,-12 z"
   id="path30-7" /><path
   d="m 441.32738,291.63742 c -6.6,0 -12,5.4 -12,12 0,6.6 5.4,12 12,12 6.6,0 12,-5.4 12,-12 0,-6.6 -5.3,-12 -12,-12 z"
   id="path30-7-2" /><path
   d="m 441.32738,338.49068 c -6.6,0 -12,5.4 -12,12 0,6.6 5.4,12 12,12 6.6,0 12,-5.4 12,-12 0,-6.6 -5.3,-12 -12,-12 z"
   id="path30-7-25" /><path
   d="m 441.32738,383.25784 c -6.6,0 -12,5.4 -12,12 0,6.6 5.4,12 12,12 6.6,0 12,-5.4 12,-12 0,-6.6 -5.3,-12 -12,-12 z"
   id="path30-7-25-9" /><path
   d="m 440.025,428.025 c -6.6,0 -12,5.4 -12,12 0,6.6 5.4,12 12,12 6.6,0 12,-5.4 12,-12 0,-6.6 -5.3,-12 -12,-12 z"
   id="path30-7-25-6" /><path
   d="m 396.48478,429.85273 c -6.6,0 -12,5.4 -12,12 0,6.6 5.4,12 12,12 6.6,0 12,-5.4 12,-12 0,-6.6 -5.3,-12 -12,-12 z"
   id="path30-7-25-5" /><path
   d="m 351.03613,429.85273 c -6.6,0 -12,5.4 -12,12 0,6.6 5.4,12 12,12 6.6,0 12,-5.4 12,-12 0,-6.6 -5.3,-12 -12,-12 z"
   id="path30-7-25-0" /><path
   d="m 301.43219,429.85273 c -6.6,0 -12,5.4 -12,12 0,6.6 5.4,12 12,12 6.6,0 12,-5.4 12,-12 0,-6.6 -5.3,-12 -12,-12 z"
   id="path30-7-25-4" /><path
   d="m 261.91951,350.57568 c 0.0227,-3.19992 -1.25535,-6.30905 -3.43971,-8.52458 -2.18437,-2.21552 -5.27508,-3.53745 -8.475,-3.56011 -3.19992,-0.0227 -6.30905,1.25535 -8.52458,3.43971 -2.21552,2.18436 -3.53745,5.27508 -3.56011,8.475 -0.022,3.09992 1.25535,6.30905 3.43971,8.52457 2.18436,2.21553 5.27508,3.53745 8.475,3.56012 3.09992,0.022 6.30905,-1.25535 8.52457,-3.43971 2.31624,-2.28466 3.53817,-5.37608 3.56012,-8.475 z"
   id="path24-5" /><path
   d="m 262.26799,397.42894 c 0.0468,-6.59983 -5.31487,-12.03794 -11.91471,-12.08469 -6.59983,-0.0467 -12.03794,5.31488 -12.08469,11.91471 -0.0467,6.59984 5.31488,12.03795 11.91471,12.08469 6.59984,0.0467 12.03724,-5.21487 12.08469,-11.91471 z"
   id="path30-3" /><path
   d="m 261.91952,441.93772 c 0.0468,-6.59983 -5.31487,-12.03794 -11.91471,-12.08469 -6.59983,-0.0467 -12.03794,5.31488 -12.08469,11.91471 -0.0467,6.59984 5.31488,12.03795 11.91471,12.08469 6.59984,0.0467 12.03724,-5.21487 12.08469,-11.91471 z"
   id="path30-3-4" />
<path
   id="rect1155"
   style="fill:none;stroke:#000000;stroke-width:33.6681;stroke-linejoin:round"
   d="M 16.834034,16.834034 H 227.25946 V 227.25946 H 16.834034 Z" /><path
   style="fill:none;stroke:#000000;stroke-width:36.162;stroke-dasharray:none"
   d="m 122.04675,16.834034 v 210.425426 0"
   id="path1774" /><path
   style="fill:none;stroke:#000000;stroke-width:36.162;stroke-dasharray:none"
   d="M 16.834034,122.04675 H 227.25946"
   id="path1776" /></g>
</svg>
