<?xml version="1.0" encoding="UTF-8" standalone="no"?>
<!-- Uploaded to: SVG Repo, www.svgrepo.com, Generator: SVG Repo Mixer Tools -->

<svg
   fill="#000000"
   height="800px"
   width="800px"
   version="1.1"
   id="Capa_1"
   viewBox="0 0 452.025 452.025"
   xml:space="preserve"
   sodipodi:docname="change.svg"
   inkscape:version="1.2.2 (732a01da63, 2022-12-09)"
   xmlns:inkscape="http://www.inkscape.org/namespaces/inkscape"
   xmlns:sodipodi="http://sodipodi.sourceforge.net/DTD/sodipodi-0.dtd"
   xmlns="http://www.w3.org/2000/svg"
   xmlns:svg="http://www.w3.org/2000/svg"><defs
   id="defs47">
		
		
		
		
		
		
		
		
		
		
		
		
		
		
		
		
		
		
		
	</defs><sodipodi:namedview
   id="namedview45"
   pagecolor="#ffffff"
   bordercolor="#000000"
   borderopacity="0.25"
   inkscape:showpageshadow="2"
   inkscape:pageopacity="0.0"
   inkscape:pagecheckerboard="0"
   inkscape:deskcolor="#d1d1d1"
   showgrid="false"
   inkscape:zoom="1.03625"
   inkscape:cx="375.39204"
   inkscape:cy="506.6345"
   inkscape:window-width="1920"
   inkscape:window-height="1013"
   inkscape:window-x="-8"
   inkscape:window-y="-8"
   inkscape:window-maximized="1"
   inkscape:current-layer="g42"
   showguides="true"><sodipodi:guide
     position="78.518215,376.77838"
     orientation="0,-1"
     id="guide589"
     inkscape:locked="false" /></sodipodi:namedview>
<g
   id="g42">
	<path
   d="m 147.912,363.325 c -4.7,-4.7 -12.3,-4.7 -17,0 -4.7,4.7 -4.7,12.3 0,17 l 13.6,13.6 h -55.2 c -35.9,0 -65,-29.2 -65,-65 v -40.3 c 0,-6.6 -5.4,-12 -12,-12 -6.6,0 -12,5.4 -12,12 v 40.3 c 0,49.1 39.9,89 89,89 h 55.2 l -13.6,13.6 c -4.7,4.7 -4.7,12.3 0,17 2.3,2.3 5.4,3.5 8.5,3.5 3.1,0 6.1,-1.2 8.5,-3.5 l 34.1,-34.1 c 4.7,-4.7 4.7,-12.3 0,-17 z"
   id="path2" /><path
   d="M 191.23818,32.412111 148.09583,32.464172 129.39437,47.854921 13.212,47.063423 c -6.5998469,-0.04496 -12,4.251165 -12,9.447033 V 211.67796 c 0,5.19587 5.4,9.44704 12,9.44704 h 197.1 c 6.6,0 12.0095,-4.25118 12,-9.44704 L 222.03937,62.508375 C 210.75096,52.002094 199.50028,42.545816 191.23818,32.412111 Z M 198.312,202.23094 H 25.212 L 26.302531,75.24662 H 130.7016 l 25.30944,-19.343017 21.92529,-0.416976 v 0 l 20.6483,19.759993 z"
   id="path4"
   style="stroke-width:0.887273"
   sodipodi:nodetypes="cccssssssccccccccccc" /><path
   d="m 362.612,34.125 h -55.2 l 13.6,-13.6 c 4.7,-4.7 4.7,-12.3 0,-17 -4.7,-4.7 -12.3,-4.7 -17,0 l -34,34.1 c -4.7,4.7 -4.7,12.3 0,17 l 34.1,34.1 c 2.3,2.3 5.4,3.5 8.5,3.5 3.1,0 6.1,-1.2 8.5,-3.5 4.7,-4.7 4.7,-12.3 0,-17 l -13.6,-13.6 h 55.2 c 35.9,0 65,29.2 65,65 v 40.3 c 0,6.6 5.4,12 12,12 6.6,0 12,-5.4 12,-12 v -40.3 c 0,-49.1 -40,-89 -89.1,-89 z"
   id="path6" /><path
   d="m 438.812,428.025 c -3.2,0 -6.3,1.3 -8.5,3.5 -2.2,2.2 -3.5,5.3 -3.5,8.5 0,3.1 1.3,6.3 3.5,8.5 2.2,2.2 5.3,3.5 8.5,3.5 3.2,0 6.3,-1.3 8.5,-3.5 2.2,-2.2 3.5,-5.3 3.5,-8.5 0,-3.2 -1.3,-6.3 -3.5,-8.5 -2.3,-2.2 -5.4,-3.5 -8.5,-3.5 z"
   id="path8" /><path
   d="m 389.512,428.025 c -6.6,0 -12,5.4 -12,12 0,6.6 5.4,12 12,12 6.6,0 12,-5.4 12,-12 0,-6.6 -5.4,-12 -12,-12 z"
   id="path10" /><path
   d="m 290.912,428.025 c -6.6,0 -12,5.4 -12,12 0,6.6 5.4,12 12,12 6.6,0 12,-5.4 12,-12 0,-6.6 -5.3,-12 -12,-12 z"
   id="path12" /><path
   d="m 340.212,428.025 c -6.6,0 -12,5.4 -12,12 0,6.6 5.4,12 12,12 6.6,0 12,-5.4 12,-12 0,-6.6 -5.4,-12 -12,-12 z"
   id="path14" /><path
   d="m 241.713,428.025 c -3.2,0 -6.3,1.3 -8.5,3.5 -2.2,2.2 -3.5,5.3 -3.5,8.5 0,3.1 1.3,6.3 3.5,8.5 2.2,2.2 5.3,3.5 8.5,3.5 3.1,0 6.3,-1.3 8.5,-3.5 2.2,-2.2 3.5,-5.3 3.5,-8.5 0,-3.2 -1.3,-6.3 -3.5,-8.5 -2.2,-2.2 -5.401,-3.5 -8.5,-3.5 z"
   id="path16" /><path
   d="m 241.713,378.725 c -6.6,0 -12,5.4 -12,12 0,6.6 5.4,12 12,12 6.6,0 12,-5.4 12,-12 0,-6.6 -5.401,-12 -12,-12 z"
   id="path18" /><path
   d="m 241.713,329.425 c -6.6,0 -12,5.4 -12,12 0,6.6 5.4,12 12,12 6.6,0 12,-5.4 12,-12 0,-6.6 -5.401,-12 -12,-12 z"
   id="path20" /><path
   d="m 287.35486,324.974 c -6.6,0 -12,5.4 -12,12 0,6.6 5.4,12 12,12 6.6,0 12,-5.4 12,-12 0,-6.6 -5.401,-12 -12,-12 z"
   id="path20-3" /><path
   d="m 241.713,280.125 c -6.6,0 -12,5.4 -12,12 0,6.6 5.4,12 12,12 6.6,0 12,-5.4 12,-12 0,-6.6 -5.401,-12 -12,-12 z"
   id="path22" /><path
   d="m 241.713,230.925 c -3.2,0 -6.3,1.3 -8.5,3.5 -2.2,2.2 -3.5,5.3 -3.5,8.5 0,3.2 1.3,6.3 3.5,8.5 2.2,2.2 5.3,3.5 8.5,3.5 3.1,0 6.3,-1.3 8.5,-3.5 2.2,-2.2 3.5,-5.3 3.5,-8.5 0,-3.1 -1.3,-6.3 -3.5,-8.5 -2.301,-2.3 -5.401,-3.5 -8.5,-3.5 z"
   id="path24" /><path
   d="m 389.512,230.925 c -6.6,0 -12,5.4 -12,12 0,6.6 5.4,12 12,12 6.6,0 12,-5.4 12,-12 0,-6.6 -5.4,-12 -12,-12 z"
   id="path26" /><path
   d="m 340.212,230.925 c -6.6,0 -12,5.4 -12,12 0,6.6 5.4,12 12,12 6.6,0 12,-5.4 12,-12 0,-6.6 -5.4,-12 -12,-12 z"
   id="path28" /><path
   d="m 340.2625,276.44538 c -6.6,0 -12,5.4 -12,12 0,6.6 5.4,12 12,12 6.6,0 12,-5.4 12,-12 0,-6.6 -5.4,-12 -12,-12 z"
   id="path28-2" /><path
   d="m 290.912,230.925 c -6.6,0 -12,5.4 -12,12 0,6.6 5.4,12 12,12 6.6,0 12,-5.4 12,-12 0,-6.6 -5.3,-12 -12,-12 z"
   id="path30" /><path
   d="m 438.812,230.925 c -3.2,0 -6.3,1.3 -8.5,3.5 -2.2,2.2 -3.5,5.3 -3.5,8.5 0,3.2 1.3,6.3 3.5,8.5 2.2,2.2 5.3,3.5 8.5,3.5 3.2,0 6.3,-1.3 8.5,-3.5 2.2,-2.2 3.5,-5.3 3.5,-8.5 0,-3.1 -1.3,-6.3 -3.5,-8.5 -2.3,-2.2 -5.4,-3.5 -8.5,-3.5 z"
   id="path32" /><path
   d="m 438.812,280.125 c -6.6,0 -12,5.4 -12,12 0,6.6 5.4,12 12,12 6.6,0 12,-5.4 12,-12 0,-6.6 -5.4,-12 -12,-12 z"
   id="path34" /><path
   d="m 438.812,378.725 c -6.6,0 -12,5.4 -12,12 0,6.6 5.4,12 12,12 6.6,0 12,-5.4 12,-12 0,-6.6 -5.4,-12 -12,-12 z"
   id="path36" /><path
   d="m 438.812,329.425 c -6.6,0 -12,5.4 -12,12 0,6.6 5.4,12 12,12 6.6,0 12,-5.4 12,-12 0,-6.6 -5.4,-12 -12,-12 z"
   id="path38" />
<path
   d="m 340.2625,324.974 c -6.6,0 -12,5.4 -12,12 0,6.6 5.4,12 12,12 6.6,0 12,-5.4 12,-12 0,-6.6 -5.401,-12 -12,-12 z"
   id="path20-30" /><path
   d="m 389.53725,324.974 c -6.6,0 -12,5.4 -12,12 0,6.6 5.4,12 12,12 6.6,0 12,-5.4 12,-12 0,-6.6 -5.401,-12 -12,-12 z"
   id="path20-2" /><path
   d="m 340.2625,376.4995 c -6.6,0 -12,5.4 -12,12 0,6.6 5.4,12 12,12 6.6,0 12,-5.4 12,-12 0,-6.6 -5.401,-12 -12,-12 z"
   id="path20-35" /></g>
</svg>
